# xmcd CD database file
#
# Track frame offsets:
#	150
#	16226
#	31742
#	47629
#	62716
#	82182
#	97624
#	109292
#	124292
#	138177
#	153703
#	166807
#
# Disc length: 2412 seconds
#
# Revision: 0
# Processed by: cddbd v1.5.2PL0 Copyright (c) Steve Scherf et al.
# Submitted via: CDex 1.75
#
DISCID=93096a0c
DTITLE=Christopher Phillips - Piano Chill: Songs of Simon and Garfunkel
DYEAR=2019
DGENRE=New Age
TTITLE0=America
TTITLE1=The Sound of Silence
TTITLE2=Mrs. Robinson
TTITLE3=El Condor Pasa (If I Could)
TTITLE4=The Boxer
TTITLE5=Scarborough Fair
TTITLE6=Homeward Bound
TTITLE7=I Am A Rock
TTITLE8=Bookends
TTITLE9=Cecilia
TTITLE10=The 59th Street Bridge Song (Feelin' Groovy)
TTITLE11=Bridge Over Troubled Water
EXTD=YEAR: 2019
EXTT0=
EXTT1=
EXTT2=
EXTT3=
EXTT4=
EXTT5=
EXTT6=
EXTT7=
EXTT8=
EXTT9=
EXTT10=
EXTT11=
PLAYORDER=
